<svg width="112" height="21" viewBox="0 0 112 21" fill="none" xmlns="http://www.w3.org/2000/svg">
<path d="M7.86641 15.56C7.56641 15.56 7.20641 15.51 6.78641 15.41C6.36641 15.33 5.98641 15.18 5.64641 14.96C5.32641 14.76 5.16641 14.47 5.16641 14.09C5.16641 13.53 5.32641 12.84 5.64641 12.02C5.96641 11.18 6.37641 10.29 6.87641 9.35C7.37641 8.41 7.90641 7.47 8.46641 6.53C9.04641 5.59 9.59641 4.73 10.1164 3.95C10.6364 3.15 11.0664 2.5 11.4064 2C11.1864 2 10.7764 2.05 10.1764 2.15C9.59641 2.25 8.93641 2.38 8.19641 2.54C7.45641 2.7 6.72641 2.89 6.00641 3.11C5.30641 3.31 4.71641 3.53 4.23641 3.77C3.75641 3.99 3.49641 4.21 3.45641 4.43L3.69641 4.52C3.83641 4.44 3.97641 4.4 4.11641 4.4C4.27641 4.38 4.43641 4.37 4.59641 4.37L5.01641 4.22L4.98641 4.28C4.54641 4.56 4.14641 4.88 3.78641 5.24C3.42641 5.58 3.06641 5.94 2.70641 6.32L2.52641 6.38L2.40641 6.59L2.07641 6.65L2.04641 6.71L2.07641 7.25L1.05641 6.74C0.976406 6.52 0.856406 6.32 0.696406 6.14C0.556406 5.96 0.486406 5.75 0.486406 5.51C1.24641 4.57 2.15641 3.86 3.21641 3.38C4.27641 2.88 5.32641 2.38 6.36641 1.88L6.33641 1.91C6.37641 1.93 6.43641 1.95 6.51641 1.97C6.59641 1.99 6.65641 2 6.69641 2C6.85641 2 7.01641 1.97 7.17641 1.91C7.33641 1.83 7.49641 1.77 7.65641 1.73V1.79C7.83641 1.75 8.01641 1.71 8.19641 1.67C8.37641 1.61 8.56641 1.54 8.76641 1.46V1.52L9.21641 1.37V1.34L9.36641 1.37L9.33641 1.34C9.33641 1.3 9.34641 1.29 9.36641 1.31C9.40641 1.33 9.42641 1.35 9.42641 1.37L9.60641 1.34L9.66641 1.19L9.84641 1.25L9.78641 1.19L9.84641 1.22L9.87641 1.25H10.3264L10.5364 1.16L10.5964 1.07L11.4064 1.1L11.4364 1.07L11.7064 0.949999C11.8464 0.949999 11.9764 0.949999 12.0964 0.949999C12.2364 0.929999 12.3764 0.919999 12.5164 0.919999C12.6564 0.759999 12.7764 0.569999 12.8764 0.35C12.9964 0.129999 13.1864 0.0199994 13.4464 0.0199994C13.7264 0.0199994 13.9764 0.0799995 14.1964 0.2C14.4164 0.319999 14.6564 0.379999 14.9164 0.379999C14.9564 0.499999 15.1164 0.619999 15.3964 0.739999C15.6764 0.84 15.9864 0.93 16.3264 1.01C16.6864 1.07 17.0264 1.12 17.3464 1.16C17.6664 1.18 17.8964 1.19 18.0364 1.19L19.3264 1.58L19.4164 1.55C19.5964 1.55 19.8464 1.67 20.1664 1.91C20.4864 2.15 20.8064 2.41 21.1264 2.69C21.4464 2.97 21.6664 3.18 21.7864 3.32C21.8264 3.46 21.8664 3.61 21.9064 3.77C21.9464 3.93 22.0064 4.08 22.0864 4.22C22.0064 4.98 21.8664 5.55 21.6664 5.93C21.4664 6.29 21.1764 6.55 20.7964 6.71C20.4164 6.87 19.8964 7.04 19.2364 7.22L18.8464 7.19V7.34H18.7864L18.6664 7.22L17.4664 7.58V7.4C17.0864 7.66 16.7964 7.79 16.5964 7.79C16.4164 7.79 16.1264 7.81 15.7264 7.85L15.6964 7.79C15.6164 7.87 15.5364 7.92 15.4564 7.94C15.3764 7.94 15.2864 7.94 15.1864 7.94C14.8664 7.94 14.5764 8.02 14.3164 8.18C14.0564 8.32 13.7664 8.38 13.4464 8.36V8.51L13.2964 8.48L13.1764 8.36L13.1164 8.48V8.51L13.0564 8.48C13.0164 8.46 12.9764 8.45 12.9364 8.45C12.8964 8.43 12.8564 8.42 12.8164 8.42C12.7164 8.42 12.6164 8.44 12.5164 8.48C12.4164 8.5 12.3164 8.51 12.2164 8.51L12.2464 8.33C12.2264 8.35 12.0164 8.37 11.6164 8.39C11.2164 8.41 10.7964 8.45 10.3564 8.51C9.93641 8.57 9.63641 8.68 9.45641 8.84C9.43641 9 9.38641 9.22 9.30641 9.5C9.22641 9.76 9.07641 9.89 8.85641 9.89V9.68L8.67641 9.44H8.64641C8.56641 9.44 8.49641 9.48 8.43641 9.56C8.39641 9.62 8.39641 9.7 8.43641 9.8C8.37641 9.88 8.31641 9.96 8.25641 10.04C8.19641 10.1 8.16641 10.18 8.16641 10.28L8.31641 10.55L8.55641 10.49L8.67641 10.55C8.67641 10.61 8.55641 10.77 8.31641 11.03C8.07641 11.29 7.82641 11.61 7.56641 11.99C7.30641 12.35 7.14641 12.73 7.08641 13.13L6.72641 13.34L6.96641 13.49L7.08641 13.73L6.87641 14.12L6.99641 14.24C7.01641 14.34 7.03641 14.44 7.05641 14.54C7.09641 14.66 7.14641 14.76 7.20641 14.84L7.35641 14.9C7.55641 14.9 7.78641 14.83 8.04641 14.69C8.32641 14.55 8.59641 14.38 8.85641 14.18C9.13641 14 9.35641 13.86 9.51641 13.76L9.63641 13.91C9.61641 13.99 9.50641 14.14 9.30641 14.36C9.12641 14.6 8.92641 14.83 8.70641 15.05C8.48641 15.27 8.33641 15.44 8.25641 15.56H7.86641ZM9.99641 7.94C11.2964 7.66 12.5864 7.4 13.8664 7.16C15.1464 6.9 16.4064 6.54 17.6464 6.08L17.6764 6.05C18.0364 5.91 18.4164 5.75 18.8164 5.57C19.2164 5.37 19.5664 5.12 19.8664 4.82C20.1664 4.52 20.3164 4.16 20.3164 3.74C20.2364 3.56 20.1264 3.37 19.9864 3.17C19.8464 2.95 19.6564 2.83 19.4164 2.81L19.4764 2.84C19.0764 2.7 18.6864 2.52 18.3064 2.3C17.9464 2.08 17.5464 1.95 17.1064 1.91V1.94H17.0164C16.8964 1.88 16.7864 1.85 16.6864 1.85C16.6064 1.85 16.5264 1.86 16.4464 1.88C16.3664 1.9 16.2764 1.91 16.1764 1.91L15.9364 1.73H15.5764C15.3564 1.73 15.1364 1.73 14.9164 1.73C14.6964 1.71 14.4764 1.69 14.2564 1.67C13.9764 1.93 13.6364 2.27 13.2364 2.69C12.8564 3.11 12.4964 3.54 12.1564 3.98C11.8364 4.42 11.5964 4.82 11.4364 5.18V5.48C11.0964 5.62 10.8264 5.93 10.6264 6.41C10.4464 6.87 10.2464 7.25 10.0264 7.55L9.96641 7.76L10.0564 7.88L9.99641 7.94ZM5.31641 4.22L5.37641 4.01L5.46641 4.07L5.52641 4.16L5.46641 4.22H5.31641ZM9.84641 13.64L9.63641 13.58C9.63641 13.48 9.69641 13.39 9.81641 13.31C9.95641 13.21 10.0664 13.15 10.1464 13.13L10.2364 13.19L9.84641 13.64ZM23.518 13.7C23.218 13.7 22.988 13.58 22.828 13.34L22.138 13.01C22.058 12.83 22.018 12.61 22.018 12.35C22.018 11.93 22.118 11.48 22.318 11C22.538 10.5 22.748 10.08 22.948 9.74C22.808 9.66 22.688 9.56 22.588 9.44C22.488 9.32 22.388 9.2 22.288 9.08L22.198 9.02C22.118 9.1 22.028 9.17 21.928 9.23C21.828 9.29 21.728 9.33 21.628 9.35C21.448 9.53 21.188 9.83 20.848 10.25C20.508 10.65 20.138 11.07 19.738 11.51C19.338 11.93 18.948 12.3 18.568 12.62C18.208 12.94 17.918 13.1 17.698 13.1L17.668 13.04C17.688 12.92 17.778 12.79 17.938 12.65C18.118 12.49 18.248 12.37 18.328 12.29C18.368 12.13 18.468 11.99 18.628 11.87C18.788 11.75 18.938 11.66 19.078 11.6H19.108L19.288 11.33L19.438 11.24L19.408 11.21L19.618 11.06C19.658 10.96 19.718 10.87 19.798 10.79C19.878 10.71 19.948 10.63 20.008 10.55V10.49C20.448 10.15 20.848 9.78 21.208 9.38C21.588 8.96 21.978 8.55 22.378 8.15L22.408 8.12L22.378 7.94C22.378 7.72 22.428 7.48 22.528 7.22C22.648 6.94 22.778 6.73 22.918 6.59C23.058 6.39 23.228 6.18 23.428 5.96C23.648 5.72 23.888 5.6 24.148 5.6C24.348 5.6 24.468 5.7 24.508 5.9C24.548 6.08 24.568 6.24 24.568 6.38C24.568 6.88 24.438 7.27 24.178 7.55C23.918 7.81 23.648 8.01 23.368 8.15C23.108 8.29 22.978 8.44 22.978 8.6L23.458 8.81L23.638 8.66L23.668 8.69H23.728C23.848 8.63 23.968 8.58 24.088 8.54C24.208 8.48 24.338 8.45 24.478 8.45C24.598 8.45 24.718 8.49 24.838 8.57C24.958 8.63 25.058 8.69 25.138 8.75L25.168 9.02C25.188 9.2 25.108 9.4 24.928 9.62C24.768 9.82 24.568 10.06 24.328 10.34C24.088 10.6 23.878 10.92 23.698 11.3C23.518 11.66 23.428 12.08 23.428 12.56C23.428 12.68 23.448 12.81 23.488 12.95C23.548 13.07 23.658 13.13 23.818 13.13C24.058 13.13 24.328 13.04 24.628 12.86C24.928 12.68 25.228 12.48 25.528 12.26C25.828 12.02 26.078 11.84 26.278 11.72L26.398 11.87C26.398 12.01 26.278 12.18 26.038 12.38C25.798 12.58 25.508 12.78 25.168 12.98C24.828 13.18 24.498 13.35 24.178 13.49C23.878 13.63 23.658 13.7 23.518 13.7ZM28.2999 13.31C27.9999 13.31 27.7499 13.24 27.5499 13.1C27.3499 12.94 27.1699 12.73 27.0099 12.47H26.9499L26.9799 12.23L26.9199 12.26V12.08L27.0699 11.96H27.0099L26.8299 11.81H26.8899L26.9499 11.69V11.63L26.8899 11.48V11.42H26.8299L26.4099 11.21V11.12C26.2699 10.98 26.1499 10.83 26.0499 10.67C25.9699 10.49 25.9299 10.3 25.9299 10.1C25.9299 9.82 26.0499 9.49 26.2899 9.11C26.5499 8.73 26.8499 8.39 27.1899 8.09C27.5499 7.79 27.8699 7.64 28.1499 7.64C28.2899 7.5 28.4899 7.43 28.7499 7.43L28.8399 7.34L28.9899 7.37C29.2099 7.27 29.4499 7.24 29.7099 7.28L29.7399 7.22H31.4199C31.5799 7.22 31.7799 7.26 32.0199 7.34C32.2799 7.42 32.4799 7.48 32.6199 7.52C32.7999 7.72 33.0399 7.88 33.3399 8C33.6399 8.1 33.7899 8.32 33.7899 8.66C33.7899 9.08 33.6699 9.48 33.4299 9.86C33.1899 10.24 32.9099 10.54 32.5899 10.76H32.5599C32.5399 10.82 32.4399 10.92 32.2599 11.06C32.0999 11.18 31.9199 11.31 31.7199 11.45C31.5399 11.57 31.4199 11.66 31.3599 11.72L31.2699 11.99C31.1299 11.99 30.9999 12.04 30.8799 12.14C30.7599 12.22 30.6999 12.33 30.6999 12.47C30.7399 12.55 30.8299 12.62 30.9699 12.68C31.1099 12.72 31.2299 12.74 31.3299 12.74L31.2099 12.8C30.5699 12.8 30.0799 12.85 29.7399 12.95C29.3999 13.03 29.1299 13.11 28.9299 13.19C28.7299 13.27 28.5199 13.31 28.2999 13.31ZM29.1099 12.53C29.7299 12.23 30.1599 12 30.3999 11.84C30.6599 11.66 30.8399 11.51 30.9399 11.39C31.0399 11.25 31.1699 11.07 31.3299 10.85C31.4899 10.63 31.7799 10.32 32.1999 9.92V9.86C32.1199 9.86 32.0499 9.85 31.9899 9.83C32.0099 9.65 32.0499 9.48 32.1099 9.32C32.1899 9.14 32.2299 8.95 32.2299 8.75C32.2299 8.39 32.0899 8.1 31.8099 7.88C31.5499 7.64 31.2499 7.52 30.9099 7.52C30.7299 7.52 30.5399 7.54 30.3399 7.58C30.1599 7.62 29.9899 7.67 29.8299 7.73L29.4399 7.7C29.1199 7.82 28.7599 8 28.3599 8.24C27.9799 8.48 27.6499 8.77 27.3699 9.11C27.0899 9.43 26.9499 9.79 26.9499 10.19C26.9499 10.39 26.9899 10.56 27.0699 10.7L27.1899 10.73V10.64L27.3399 10.55L27.5499 10.1V9.98L27.7299 9.71L27.7899 9.74L27.8799 9.56L28.0299 9.47V9.44C28.0899 9.42 28.1499 9.4 28.2099 9.38C28.2899 9.36 28.3599 9.33 28.4199 9.29C28.4199 9.13 28.4899 9.04 28.6299 9.02C28.7699 8.98 28.8499 8.89 28.8699 8.75H29.0499L29.2599 8.51L29.3799 8.6L29.6499 8.42H29.9199V8.51C29.6199 8.59 29.2899 8.81 28.9299 9.17C28.5699 9.51 28.2699 9.89 28.0299 10.31C27.7899 10.73 27.6799 11.11 27.6999 11.45L27.7299 11.99C27.9499 12.09 28.1699 12.21 28.3899 12.35C28.6099 12.47 28.8499 12.53 29.1099 12.53ZM28.2399 12.74L28.4199 12.65L27.7299 12.32L27.6699 12.35L27.7899 12.62L28.2399 12.74ZM39.4536 15.56C39.1736 15.56 38.9536 15.42 38.7936 15.14C38.6336 14.86 38.5536 14.6 38.5536 14.36C38.5536 14 38.5536 13.65 38.5536 13.31C38.5736 12.95 38.6036 12.6 38.6436 12.26L38.5836 12.23C38.6836 11.97 38.8036 11.64 38.9436 11.24C39.1036 10.82 39.1836 10.51 39.1836 10.31C39.0836 10.41 38.9836 10.52 38.8836 10.64C38.7836 10.74 38.6936 10.85 38.6136 10.97C38.4736 11.11 38.3436 11.27 38.2236 11.45C38.1236 11.63 37.9936 11.8 37.8336 11.96C37.5936 12.02 37.3736 12.2 37.1736 12.5C36.9736 12.78 36.7436 13.05 36.4836 13.31C36.2436 13.57 35.9036 13.7 35.4636 13.7C35.3236 13.7 35.1436 13.69 34.9236 13.67C34.7236 13.63 34.5736 13.57 34.4736 13.49C34.2136 13.43 34.0236 13.36 33.9036 13.28C33.8036 13.18 33.7236 13 33.6636 12.74L33.7836 12.35L33.6936 12.11C33.7936 11.79 33.8636 11.56 33.9036 11.42C33.9636 11.28 34.0436 11.16 34.1436 11.06C34.2636 10.96 34.4536 10.81 34.7136 10.61C34.7336 10.51 34.7836 10.44 34.8636 10.4C34.9636 10.34 35.0536 10.3 35.1336 10.28L35.1636 10.13L35.4636 9.77L35.5536 9.83L35.7336 9.56C35.8736 9.46 36.0136 9.4 36.1536 9.38C36.3136 9.34 36.4636 9.28 36.6036 9.2C36.6436 9.04 36.7636 8.89 36.9636 8.75C37.1836 8.61 37.4036 8.47 37.6236 8.33C37.8436 8.19 37.9636 8.06 37.9836 7.94L38.1036 7.97L38.6136 7.64L38.7636 7.7L39.2136 7.43L39.7536 7.4L39.8436 7.49C39.8436 7.63 39.7436 7.78 39.5436 7.94C39.3636 8.08 39.2036 8.14 39.0636 8.12C38.7036 8.2 38.2836 8.4 37.8036 8.72C37.3236 9.04 36.8536 9.42 36.3936 9.86C35.9536 10.28 35.5836 10.73 35.2836 11.21C34.9836 11.67 34.8336 12.1 34.8336 12.5C34.8336 12.88 35.0336 13.07 35.4336 13.07C35.7336 13.07 36.1036 12.91 36.5436 12.59C36.9836 12.25 37.3936 11.87 37.7736 11.45C38.1536 11.03 38.4036 10.69 38.5236 10.43L39.0336 10.04C39.0936 9.86 39.2536 9.65 39.5136 9.41C39.7736 9.15 39.9436 8.93 40.0236 8.75C40.1036 8.61 40.1436 8.48 40.1436 8.36C40.1636 8.22 40.2636 8.13 40.4436 8.09C40.5636 7.97 40.6936 7.84 40.8336 7.7C40.9936 7.56 41.0536 7.39 41.0136 7.19C41.1136 7.05 41.2136 6.91 41.3136 6.77C41.4336 6.63 41.5336 6.49 41.6136 6.35H41.7036L41.8536 6.23V6.2H42.0036L42.0936 6.05L42.0636 5.72L42.2136 5.63L42.1836 5.54C42.1836 5.52 42.2236 5.45 42.3036 5.33C42.3836 5.19 42.4636 5.05 42.5436 4.91C42.6236 4.77 42.6636 4.68 42.6636 4.64C42.6636 4.44 42.5836 4.34 42.4236 4.34C42.3636 4.34 42.2936 4.35 42.2136 4.37C42.1536 4.39 42.0936 4.41 42.0336 4.43L42.0036 4.28L43.3236 2.99V2.96C43.5636 2.78 43.7836 2.59 43.9836 2.39C44.2036 2.17 44.4436 1.98 44.7036 1.82C44.9036 1.88 45.1336 1.95 45.3936 2.03C45.6736 2.11 45.8736 2.26 45.9936 2.48L46.0536 2.87V2.93C46.0536 3.01 45.9136 3.22 45.6336 3.56C45.3536 3.9 45.0036 4.3 44.5836 4.76C44.1636 5.22 43.7336 5.67 43.2936 6.11C42.8736 6.55 42.5136 6.92 42.2136 7.22C41.9336 7.52 41.7736 7.67 41.7336 7.67C41.7136 7.81 41.6736 7.96 41.6136 8.12C41.5736 8.26 41.5336 8.41 41.4936 8.57C41.3336 8.61 41.1936 8.71 41.0736 8.87C40.9736 9.03 40.8736 9.18 40.7736 9.32L40.8036 9.38C40.8036 9.44 40.7236 9.63 40.5636 9.95C40.4036 10.27 40.2136 10.67 39.9936 11.15C39.7736 11.63 39.5836 12.14 39.4236 12.68C39.2636 13.2 39.1836 13.7 39.1836 14.18C39.1836 14.4 39.2136 14.63 39.2736 14.87C39.3536 15.13 39.4636 15.34 39.6036 15.5L39.4536 15.56ZM40.8132 15.77C40.6932 15.59 40.6332 15.41 40.6332 15.23C40.6332 15.09 40.6632 14.96 40.7232 14.84C40.7632 14.72 40.8132 14.61 40.8732 14.51H40.9032L40.8732 14.48C41.0132 14.28 41.2332 14.02 41.5332 13.7C41.8532 13.38 42.1932 13.09 42.5532 12.83C42.9132 12.57 43.2032 12.43 43.4232 12.41L43.6032 12.29C43.7032 12.13 43.8532 11.98 44.0532 11.84C44.2732 11.68 44.4632 11.55 44.6232 11.45L44.8032 11.48L44.7732 11.36L44.8632 11.3L44.7732 11C44.5732 10.92 44.3132 10.82 43.9932 10.7C43.6932 10.58 43.4132 10.43 43.1532 10.25C42.9132 10.05 42.7932 9.82 42.7932 9.56C42.7932 9.36 42.9732 9.08 43.3332 8.72C43.6932 8.36 44.1232 8 44.6232 7.64C45.1432 7.26 45.6332 6.94 46.0932 6.68C46.5732 6.42 46.9132 6.29 47.1132 6.29C47.3732 6.19 47.5632 6.03 47.6832 5.81C47.8032 5.59 47.9132 5.39 48.0132 5.21C48.1332 5.01 48.2932 4.91 48.4932 4.91C48.7532 4.91 48.9732 5.04 49.1532 5.3C49.3532 5.56 49.4932 5.79 49.5732 5.99C49.5532 6.07 49.4932 6.14 49.3932 6.2C49.3132 6.26 49.2532 6.34 49.2132 6.44C48.9732 6.64 48.7732 6.89 48.6132 7.19C48.4732 7.47 48.3332 7.75 48.1932 8.03L47.6532 8.33L47.5632 8.21H47.5332C47.4532 8.31 47.3732 8.4 47.2932 8.48C47.2132 8.56 47.1532 8.65 47.1132 8.75C47.0332 8.83 46.9532 8.95 46.8732 9.11C46.8132 9.25 46.7232 9.33 46.6032 9.35L46.5732 9.29C46.6732 8.97 46.7732 8.65 46.8732 8.33C46.9732 7.99 47.0832 7.66 47.2032 7.34L47.2632 7.31L47.3232 6.86C47.1232 6.86 46.9332 6.91 46.7532 7.01C46.5732 7.11 46.3732 7.15 46.1532 7.13C46.0732 7.19 45.9332 7.31 45.7332 7.49C45.5532 7.67 45.3732 7.83 45.1932 7.97C45.0132 8.11 44.8732 8.19 44.7732 8.21C44.6532 8.43 44.4732 8.64 44.2332 8.84C44.0132 9.04 43.9032 9.28 43.9032 9.56C43.9032 9.68 43.9632 9.76 44.0832 9.8C44.2032 9.82 44.3132 9.83 44.4132 9.83V10.01L44.4732 9.98L44.9532 10.1L45.0432 10.01C45.3032 10.07 45.6232 10.17 46.0032 10.31C46.4032 10.43 46.7532 10.6 47.0532 10.82C47.3732 11.04 47.5332 11.33 47.5332 11.69C47.5332 11.83 47.5032 11.97 47.4432 12.11C47.3832 12.25 47.3032 12.39 47.2032 12.53L46.7232 13.01L45.9732 12.95C45.8332 13.05 45.5932 13.14 45.2532 13.22C44.9132 13.28 44.5932 13.34 44.2932 13.4C44.0132 13.46 43.8732 13.53 43.8732 13.61L43.6032 13.37C43.5032 13.55 43.3532 13.64 43.1532 13.64C42.9532 13.64 42.7532 13.64 42.5532 13.64C42.3732 13.64 42.1632 13.75 41.9232 13.97C41.7032 14.19 41.5032 14.43 41.3232 14.69C41.1432 14.97 41.0332 15.2 40.9932 15.38L40.8132 15.77ZM56.9213 15.56L56.8013 15.5C56.6613 15.26 56.5913 15.01 56.5913 14.75C56.5913 14.29 56.7613 13.86 57.1013 13.46C57.4413 13.06 57.8613 12.69 58.3613 12.35C58.8613 11.99 59.3613 11.66 59.8613 11.36C60.3613 11.04 60.7813 10.75 61.1213 10.49C61.4613 10.21 61.6313 9.95 61.6313 9.71C61.6313 9.49 61.4913 9.33 61.2113 9.23C60.9513 9.13 60.7313 9.05 60.5513 8.99L60.4313 8.78V8.72H60.3113L60.3413 8.75V8.78C60.1413 8.84 59.9213 8.87 59.6813 8.87L59.3813 8.75H59.3213V8.9L59.1713 8.87L59.0513 8.75L58.9613 8.87V8.9L58.9313 8.87C58.8913 8.85 58.8113 8.84 58.6913 8.84C58.6113 8.84 58.5113 8.85 58.3913 8.87C58.2913 8.89 58.1913 8.9 58.0913 8.9L58.1213 8.72L58.0313 8.75L57.7313 8.69L57.7613 8.81H57.7313V8.78L57.5813 8.72L57.5213 8.78L57.2513 8.42H57.2813L57.2513 8.36C57.2313 8.36 57.1813 8.34 57.1013 8.3C57.0213 8.26 56.9613 8.24 56.9213 8.24C56.8213 8.24 56.7213 8.28 56.6213 8.36C56.5413 8.42 56.4713 8.47 56.4113 8.51L56.3813 8.75L56.2013 8.81C56.1813 8.91 56.1513 9.02 56.1113 9.14C56.0713 9.26 56.0413 9.38 56.0213 9.5C55.8613 9.64 55.7213 9.93 55.6013 10.37C55.5013 10.81 55.4113 11.3 55.3313 11.84C55.2513 12.36 55.1913 12.86 55.1513 13.34C55.1313 13.82 55.1213 14.18 55.1213 14.42L55.3013 14.84H55.3313L55.5413 15.11V15.14L55.4813 15.2L54.7913 15.11C54.5513 14.95 54.3213 14.68 54.1013 14.3C53.9013 13.92 53.7713 13.6 53.7113 13.34L53.6213 13.28V13.1C53.4413 12.84 53.3513 12.59 53.3513 12.35L53.6513 11.54L53.4413 11.24L53.7113 10.73V10.64H53.5013L53.3513 10.73V10.7L53.4413 10.52C53.4013 10.26 53.4513 9.97 53.5913 9.65C53.7513 9.33 53.9113 9.01 54.0713 8.69C54.2513 8.35 54.3413 8.05 54.3413 7.79C54.5013 7.63 54.6213 7.46 54.7013 7.28C54.7813 7.08 54.8613 6.88 54.9413 6.68C55.3413 5.84 55.8213 5.05 56.3813 4.31C56.9613 3.57 57.5313 2.83 58.0913 2.09V2C57.8913 2 57.4913 2.05 56.8913 2.15C56.3113 2.25 55.6413 2.38 54.8813 2.54C54.1413 2.7 53.4113 2.89 52.6913 3.11C51.9913 3.31 51.4013 3.53 50.9213 3.77C50.4413 3.99 50.1913 4.21 50.1713 4.43L50.3813 4.52C50.5213 4.44 50.6713 4.4 50.8313 4.4C50.9913 4.38 51.1413 4.37 51.2813 4.37L51.7013 4.22L51.6713 4.28C51.2313 4.58 50.8313 4.9 50.4713 5.24C50.1113 5.58 49.7613 5.94 49.4213 6.32L49.2113 6.38L49.1213 6.59L48.7613 6.65L48.7313 6.71L48.7613 7.25L47.7713 6.74C47.6913 6.52 47.5713 6.32 47.4113 6.14C47.2713 5.96 47.2013 5.75 47.2013 5.51C47.7013 4.89 48.2713 4.37 48.9113 3.95C49.5713 3.53 50.2513 3.16 50.9513 2.84C51.6713 2.52 52.3713 2.2 53.0513 1.88V1.94C53.1713 1.98 53.2913 2 53.4113 2C53.5713 2 53.7213 1.97 53.8613 1.91C54.0213 1.83 54.1813 1.77 54.3413 1.73V1.79C54.5413 1.75 54.7313 1.71 54.9113 1.67C55.0913 1.61 55.2713 1.54 55.4513 1.46V1.52L55.9013 1.37V1.34L56.0813 1.37L56.0213 1.34C56.0213 1.3 56.0413 1.29 56.0813 1.31C56.1213 1.33 56.1413 1.35 56.1413 1.37L56.2913 1.34L56.3813 1.19L56.5313 1.25L56.4713 1.19L56.5313 1.22L56.5613 1.25H57.0113L57.2513 1.16L57.2813 1.07L58.0913 1.1L58.1213 1.07L58.3913 0.949999C58.5313 0.949999 58.6613 0.949999 58.7813 0.949999C58.9213 0.929999 59.0613 0.919999 59.2013 0.919999C59.3613 0.759999 59.4913 0.569999 59.5913 0.35C59.7113 0.129999 59.9013 0.0199994 60.1613 0.0199994C60.4213 0.0199994 60.6613 0.0799995 60.8813 0.2C61.1013 0.319999 61.3413 0.379999 61.6013 0.379999C61.6613 0.499999 61.8213 0.619999 62.0813 0.739999C62.3613 0.84 62.6813 0.93 63.0413 1.01C63.4013 1.07 63.7413 1.12 64.0613 1.16C64.3813 1.18 64.6013 1.19 64.7213 1.19H64.7513H64.7213L66.0113 1.58L66.1313 1.55C66.3113 1.55 66.5613 1.67 66.8813 1.91C67.2013 2.15 67.5113 2.41 67.8113 2.69C68.1313 2.97 68.3613 3.18 68.5013 3.32C68.5413 3.46 68.5813 3.61 68.6213 3.77C68.6613 3.93 68.7313 4.08 68.8313 4.22C68.7513 4.98 68.6013 5.55 68.3813 5.93C68.1813 6.29 67.8813 6.55 67.4813 6.71C67.1013 6.87 66.5813 7.04 65.9213 7.22L65.5313 7.19V7.34H65.4713L65.3513 7.22L64.1513 7.58V7.4C63.7913 7.66 63.5113 7.79 63.3113 7.79C63.1313 7.79 62.8313 7.81 62.4113 7.85V7.79H62.2013L61.8713 7.94L61.6313 7.85L61.3313 7.88L61.3013 8.03C61.7213 8.25 62.0613 8.45 62.3213 8.63C62.5813 8.79 62.7713 9.01 62.8913 9.29C63.0313 9.55 63.1013 9.94 63.1013 10.46C63.1013 10.62 63.0413 10.77 62.9213 10.91C62.8213 11.05 62.7513 11.2 62.7113 11.36L62.0513 12.02L61.9913 11.99C61.6113 12.21 61.2213 12.36 60.8213 12.44C60.4413 12.52 60.0513 12.59 59.6513 12.65L59.5613 12.47C59.2613 12.57 58.9213 12.74 58.5413 12.98C58.1813 13.22 57.8613 13.5 57.5813 13.82C57.3213 14.14 57.1913 14.49 57.1913 14.87C57.0913 14.95 57.0213 15.05 56.9813 15.17C56.9413 15.31 56.9213 15.44 56.9213 15.56ZM57.1313 7.82C57.3713 7.82 57.6613 7.76 58.0013 7.64C58.3613 7.52 58.6613 7.42 58.9013 7.34L58.9313 7.25L59.7413 7.07V7.04H59.8613L59.9513 6.92C60.2313 6.88 60.5113 6.83 60.7913 6.77C61.0713 6.71 61.3413 6.68 61.6013 6.68C62.0013 6.5 62.4213 6.41 62.8613 6.41C63.0813 6.31 63.3113 6.24 63.5513 6.2C63.8113 6.14 64.0513 6.08 64.2713 6.02L64.3313 5.96C64.6313 5.86 64.9213 5.76 65.2013 5.66C65.5013 5.54 65.7913 5.41 66.0713 5.27L66.0113 5.24L66.9713 4.28L67.0013 3.74C66.9213 3.56 66.8113 3.37 66.6713 3.17C66.5513 2.95 66.3713 2.83 66.1313 2.81L66.1613 2.84C65.7813 2.7 65.4013 2.52 65.0213 2.3C64.6413 2.06 64.2313 1.93 63.7913 1.91V1.94H63.7013C63.5813 1.88 63.4813 1.85 63.4013 1.85C63.3213 1.85 63.2413 1.86 63.1613 1.88C63.0813 1.9 62.9913 1.91 62.8913 1.91L62.6213 1.73H62.2613C62.0413 1.73 61.8213 1.73 61.6013 1.73C61.4013 1.71 61.1913 1.69 60.9713 1.67C60.7113 1.91 60.3813 2.25 59.9813 2.69C59.6013 3.11 59.2313 3.55 58.8713 4.01C58.5313 4.45 58.2813 4.84 58.1213 5.18V5.48C57.8413 5.6 57.6213 5.86 57.4613 6.26C57.3213 6.66 57.1513 6.98 56.9513 7.22L56.9213 7.43L56.9813 7.58L56.9513 7.61L57.1313 7.82ZM52.2113 4.16L52.3013 3.95L52.3613 4.01L52.3913 4.13L52.3613 4.16H52.2113ZM66.3059 20.03C65.9459 20.03 65.5759 19.92 65.1959 19.7C64.8359 19.48 64.5359 19.2 64.2959 18.86C64.0559 18.52 63.9359 18.17 63.9359 17.81L64.0259 17.63C64.2459 17.85 64.4059 18.08 64.5059 18.32C64.5859 18.58 64.7059 18.8 64.8659 18.98C65.0459 19.16 65.3459 19.25 65.7659 19.25C65.8659 19.25 65.9559 19.24 66.0359 19.22C66.1159 19.2 66.1959 19.18 66.2759 19.16C66.4559 19.22 66.7259 19.1 67.0859 18.8C67.4459 18.52 67.8159 18.16 68.1959 17.72C68.5959 17.3 68.9359 16.88 69.2159 16.46C69.5159 16.06 69.6759 15.77 69.6959 15.59C70.0359 15.13 70.3459 14.64 70.6259 14.12C70.9059 13.62 71.1759 13.13 71.4359 12.65L71.4659 12.26L71.7359 12.14L71.7059 12.08V11.63L72.4259 10.37L72.3959 10.25C71.8959 10.87 71.3759 11.51 70.8359 12.17C70.3159 12.81 69.7859 13.44 69.2459 14.06C69.1259 14.18 68.9859 14.25 68.8259 14.27C68.6659 14.31 68.5059 14.33 68.3459 14.33C68.0259 14.33 67.7859 14.22 67.6259 14C67.4659 13.8 67.3859 13.55 67.3859 13.25C67.3859 12.87 67.4559 12.51 67.5959 12.17C67.7559 11.81 67.9259 11.48 68.1059 11.18L68.0759 11.09C68.2359 10.95 68.3559 10.76 68.4359 10.52C68.5359 10.26 68.6459 10.04 68.7659 9.86C68.2259 10.24 67.6959 10.67 67.1759 11.15C66.6759 11.63 66.1759 12.1 65.6759 12.56L65.6459 12.5C65.6459 12.44 65.7559 12.28 65.9759 12.02C66.2159 11.74 66.5059 11.42 66.8459 11.06C67.2059 10.7 67.5659 10.34 67.9259 9.98C68.3059 9.6 68.6359 9.27 68.9159 8.99C69.2159 8.71 69.4159 8.53 69.5159 8.45L70.5659 8.18C70.6659 8.14 70.8359 8.18 71.0759 8.3C71.3159 8.4 71.4359 8.51 71.4359 8.63C71.4359 8.75 71.3359 8.93 71.1359 9.17C70.9359 9.39 70.7859 9.55 70.6859 9.65H70.6559L70.7159 9.77L70.0559 10.43L70.0259 10.61L69.8159 10.67C69.7759 10.71 69.7259 10.77 69.6659 10.85C69.6259 10.91 69.6259 10.99 69.6659 11.09C69.4459 11.17 69.3359 11.27 69.3359 11.39C69.3359 11.43 69.3359 11.48 69.3359 11.54C69.3559 11.58 69.3759 11.63 69.3959 11.69L69.0959 11.87L69.1559 11.96C69.0559 12 69.0059 12.11 69.0059 12.29L69.0359 12.59L69.0959 12.68C69.0959 12.8 69.0759 12.91 69.0359 13.01C68.9959 13.11 68.9659 13.22 68.9459 13.34L69.0059 13.4C69.1859 13.38 69.4659 13.18 69.8459 12.8C70.2259 12.4 70.6259 11.92 71.0459 11.36C71.4659 10.8 71.8359 10.27 72.1559 9.77C72.4959 9.27 72.7159 8.91 72.8159 8.69C72.9159 8.51 73.0159 8.34 73.1159 8.18C73.2159 8.02 73.3659 7.94 73.5659 7.94H73.8359C73.9959 7.94 74.1659 7.99 74.3459 8.09C74.5459 8.19 74.6459 8.34 74.6459 8.54C74.6459 8.64 74.5659 8.88 74.4059 9.26C74.2459 9.64 74.0459 10.09 73.8059 10.61C73.5859 11.13 73.3459 11.65 73.0859 12.17C72.8259 12.69 72.5959 13.14 72.3959 13.52C72.1959 13.9 72.0559 14.14 71.9759 14.24C71.9559 14.36 71.9159 14.53 71.8559 14.75C71.7959 14.99 71.7059 15.14 71.5859 15.2C71.2859 15.76 70.9359 16.27 70.5359 16.73C70.1559 17.21 69.7859 17.71 69.4259 18.23L68.9159 18.47C68.8359 18.55 68.7659 18.63 68.7059 18.71C68.6459 18.81 68.5659 18.89 68.4659 18.95H68.3759C68.0759 19.25 67.7659 19.5 67.4459 19.7C67.1459 19.92 66.7659 20.03 66.3059 20.03ZM82.937 15.56L82.817 15.5C82.677 15.26 82.607 15.01 82.607 14.75C82.607 14.29 82.777 13.86 83.117 13.46C83.457 13.06 83.877 12.69 84.377 12.35C84.877 11.99 85.377 11.66 85.877 11.36C86.377 11.04 86.797 10.75 87.137 10.49C87.477 10.21 87.647 9.95 87.647 9.71C87.647 9.49 87.507 9.33 87.227 9.23C86.967 9.13 86.747 9.05 86.567 8.99L86.447 8.78V8.72H86.327L86.357 8.75V8.78C86.157 8.84 85.937 8.87 85.697 8.87L85.397 8.75H85.337V8.9L85.187 8.87L85.067 8.75L84.977 8.87V8.9L84.947 8.87C84.907 8.85 84.827 8.84 84.707 8.84C84.627 8.84 84.527 8.85 84.407 8.87C84.307 8.89 84.207 8.9 84.107 8.9L84.137 8.72L84.047 8.75L83.747 8.69L83.777 8.81H83.747V8.78L83.597 8.72L83.537 8.78L83.267 8.42H83.297L83.267 8.36C83.247 8.36 83.197 8.34 83.117 8.3C83.037 8.26 82.977 8.24 82.937 8.24C82.837 8.24 82.737 8.28 82.637 8.36C82.557 8.42 82.487 8.47 82.427 8.51L82.397 8.75L82.217 8.81C82.197 8.91 82.167 9.02 82.127 9.14C82.087 9.26 82.057 9.38 82.037 9.5C81.877 9.64 81.737 9.93 81.617 10.37C81.517 10.81 81.427 11.3 81.347 11.84C81.267 12.36 81.207 12.86 81.167 13.34C81.147 13.82 81.137 14.18 81.137 14.42L81.317 14.84H81.347L81.557 15.11V15.14L81.497 15.2L80.807 15.11C80.567 14.95 80.337 14.68 80.117 14.3C79.917 13.92 79.787 13.6 79.727 13.34L79.637 13.28V13.1C79.457 12.84 79.367 12.59 79.367 12.35L79.667 11.54L79.457 11.24L79.727 10.73V10.64H79.517L79.367 10.73V10.7L79.457 10.52C79.417 10.26 79.467 9.97 79.607 9.65C79.767 9.33 79.927 9.01 80.087 8.69C80.267 8.35 80.357 8.05 80.357 7.79C80.517 7.63 80.637 7.46 80.717 7.28C80.797 7.08 80.877 6.88 80.957 6.68C81.357 5.84 81.837 5.05 82.397 4.31C82.977 3.57 83.547 2.83 84.107 2.09V2C83.907 2 83.507 2.05 82.907 2.15C82.327 2.25 81.657 2.38 80.897 2.54C80.157 2.7 79.427 2.89 78.707 3.11C78.007 3.31 77.417 3.53 76.937 3.77C76.457 3.99 76.207 4.21 76.187 4.43L76.397 4.52C76.537 4.44 76.687 4.4 76.847 4.4C77.007 4.38 77.157 4.37 77.297 4.37L77.717 4.22L77.687 4.28C77.247 4.58 76.847 4.9 76.487 5.24C76.127 5.58 75.777 5.94 75.437 6.32L75.227 6.38L75.137 6.59L74.777 6.65L74.747 6.71L74.777 7.25L73.787 6.74C73.707 6.52 73.587 6.32 73.427 6.14C73.287 5.96 73.217 5.75 73.217 5.51C73.717 4.89 74.287 4.37 74.927 3.95C75.587 3.53 76.267 3.16 76.967 2.84C77.687 2.52 78.387 2.2 79.067 1.88V1.94C79.187 1.98 79.307 2 79.427 2C79.587 2 79.737 1.97 79.877 1.91C80.037 1.83 80.197 1.77 80.357 1.73V1.79C80.557 1.75 80.747 1.71 80.927 1.67C81.107 1.61 81.287 1.54 81.467 1.46V1.52L81.917 1.37V1.34L82.097 1.37L82.037 1.34C82.037 1.3 82.057 1.29 82.097 1.31C82.137 1.33 82.157 1.35 82.157 1.37L82.307 1.34L82.397 1.19L82.547 1.25L82.487 1.19L82.547 1.22L82.577 1.25H83.027L83.267 1.16L83.297 1.07L84.107 1.1L84.137 1.07L84.407 0.949999C84.547 0.949999 84.677 0.949999 84.797 0.949999C84.937 0.929999 85.077 0.919999 85.217 0.919999C85.377 0.759999 85.507 0.569999 85.607 0.35C85.727 0.129999 85.917 0.0199994 86.177 0.0199994C86.437 0.0199994 86.677 0.0799995 86.897 0.2C87.117 0.319999 87.357 0.379999 87.617 0.379999C87.677 0.499999 87.837 0.619999 88.097 0.739999C88.377 0.84 88.697 0.93 89.057 1.01C89.417 1.07 89.757 1.12 90.077 1.16C90.397 1.18 90.617 1.19 90.737 1.19H90.767H90.737L92.027 1.58L92.147 1.55C92.327 1.55 92.577 1.67 92.897 1.91C93.217 2.15 93.527 2.41 93.827 2.69C94.147 2.97 94.377 3.18 94.517 3.32C94.557 3.46 94.597 3.61 94.637 3.77C94.677 3.93 94.747 4.08 94.847 4.22C94.767 4.98 94.617 5.55 94.397 5.93C94.197 6.29 93.897 6.55 93.497 6.71C93.117 6.87 92.597 7.04 91.937 7.22L91.547 7.19V7.34H91.487L91.367 7.22L90.167 7.58V7.4C89.807 7.66 89.527 7.79 89.327 7.79C89.147 7.79 88.847 7.81 88.427 7.85V7.79H88.217L87.887 7.94L87.647 7.85L87.347 7.88L87.317 8.03C87.737 8.25 88.077 8.45 88.337 8.63C88.597 8.79 88.787 9.01 88.907 9.29C89.047 9.55 89.117 9.94 89.117 10.46C89.117 10.62 89.057 10.77 88.937 10.91C88.837 11.05 88.767 11.2 88.727 11.36L88.067 12.02L88.007 11.99C87.627 12.21 87.237 12.36 86.837 12.44C86.457 12.52 86.067 12.59 85.667 12.65L85.577 12.47C85.277 12.57 84.937 12.74 84.557 12.98C84.197 13.22 83.877 13.5 83.597 13.82C83.337 14.14 83.207 14.49 83.207 14.87C83.107 14.95 83.037 15.05 82.997 15.17C82.957 15.31 82.937 15.44 82.937 15.56ZM83.147 7.82C83.387 7.82 83.677 7.76 84.017 7.64C84.377 7.52 84.677 7.42 84.917 7.34L84.947 7.25L85.757 7.07V7.04H85.877L85.967 6.92C86.247 6.88 86.527 6.83 86.807 6.77C87.087 6.71 87.357 6.68 87.617 6.68C88.017 6.5 88.437 6.41 88.877 6.41C89.097 6.31 89.327 6.24 89.567 6.2C89.827 6.14 90.067 6.08 90.287 6.02L90.347 5.96C90.647 5.86 90.937 5.76 91.217 5.66C91.517 5.54 91.807 5.41 92.087 5.27L92.027 5.24L92.987 4.28L93.017 3.74C92.937 3.56 92.827 3.37 92.687 3.17C92.567 2.95 92.387 2.83 92.147 2.81L92.177 2.84C91.797 2.7 91.417 2.52 91.037 2.3C90.657 2.06 90.247 1.93 89.807 1.91V1.94H89.717C89.597 1.88 89.497 1.85 89.417 1.85C89.337 1.85 89.257 1.86 89.177 1.88C89.097 1.9 89.007 1.91 88.907 1.91L88.637 1.73H88.277C88.057 1.73 87.837 1.73 87.617 1.73C87.417 1.71 87.207 1.69 86.987 1.67C86.727 1.91 86.397 2.25 85.997 2.69C85.617 3.11 85.247 3.55 84.887 4.01C84.547 4.45 84.297 4.84 84.137 5.18V5.48C83.857 5.6 83.637 5.86 83.477 6.26C83.337 6.66 83.167 6.98 82.967 7.22L82.937 7.43L82.997 7.58L82.967 7.61L83.147 7.82ZM78.227 4.16L78.317 3.95L78.377 4.01L78.407 4.13L78.377 4.16H78.227ZM92.2018 14.21C92.0218 14.21 91.8018 14.09 91.5418 13.85C91.3018 13.61 91.1018 13.43 90.9418 13.31C90.9018 13.05 90.8318 12.82 90.7318 12.62C90.6318 12.4 90.5818 12.17 90.5818 11.93C90.5818 11.57 90.7118 11.15 90.9718 10.67C91.2518 10.17 91.6018 9.68 92.0218 9.2C92.4618 8.72 92.9018 8.32 93.3418 8C93.8018 7.68 94.2118 7.52 94.5718 7.52V7.46C94.8518 7.52 95.1118 7.7 95.3518 8C95.6118 8.3 95.7418 8.58 95.7418 8.84C95.7418 9.08 95.5918 9.33 95.2918 9.59C95.0118 9.83 94.6618 10.06 94.2418 10.28C93.8418 10.48 93.4418 10.64 93.0418 10.76C92.6618 10.88 92.3618 10.94 92.1418 10.94V11C92.0018 11.22 91.8618 11.5 91.7218 11.84C91.6018 12.16 91.5418 12.46 91.5418 12.74C91.5418 12.84 91.5718 12.95 91.6318 13.07C91.7718 13.17 91.9518 13.22 92.1718 13.22C92.3918 13.2 92.5718 13.2 92.7118 13.22L92.7418 13.25L92.8318 13.1C93.0918 13.08 93.3418 13.02 93.5818 12.92V12.74H93.7618V12.65L93.8818 12.68C93.9818 12.64 94.0518 12.6 94.0918 12.56C94.1518 12.5 94.2218 12.45 94.3018 12.41L94.4818 12.5V12.47L95.0218 11.96H95.0518L95.1418 12.02V11.99C95.4018 11.75 95.6818 11.53 95.9818 11.33C96.2818 11.13 96.5018 10.87 96.6418 10.55L96.9718 10.31L97.0318 10.37C97.0318 10.51 96.9818 10.64 96.8818 10.76C96.7818 10.88 96.6618 10.96 96.5218 11C96.3618 11.38 96.1218 11.7 95.8018 11.96C95.5018 12.22 95.1918 12.49 94.8718 12.77H94.7818L94.7518 12.92C94.3718 13.18 93.9718 13.46 93.5518 13.76C93.1518 14.06 92.7018 14.21 92.2018 14.21ZM92.7718 10.37H92.8318V10.31C92.9718 10.27 93.2118 10.15 93.5518 9.95C93.9118 9.75 94.2518 9.54 94.5718 9.32C94.8918 9.08 95.0618 8.91 95.0818 8.81H95.1118L95.0818 8.66L95.1118 8.51C95.0918 8.51 95.0518 8.51 94.9918 8.51C94.9318 8.49 94.8818 8.48 94.8418 8.48C94.5818 8.66 94.3218 8.83 94.0618 8.99C93.8018 9.15 93.5418 9.31 93.2818 9.47H93.2218L93.1918 9.71C93.0718 9.79 92.9818 9.89 92.9218 10.01C92.8618 10.11 92.8118 10.23 92.7718 10.37ZM97.3318 10.28L97.1518 10.22L97.1218 10.04L97.4218 9.95L97.4518 10.04L97.3318 10.28ZM102.182 15.98L101.582 15.29C101.482 14.89 101.372 14.48 101.252 14.06C101.152 13.66 101.082 13.25 101.042 12.83L101.192 12.26L101.132 12.23C101.212 12.01 101.292 11.79 101.372 11.57C101.472 11.33 101.522 11.1 101.522 10.88C101.422 10.98 101.312 11.08 101.192 11.18C101.092 11.28 101.012 11.4 100.952 11.54C100.872 11.62 100.802 11.72 100.742 11.84C100.682 11.96 100.602 12.06 100.502 12.14L100.472 12.41C100.192 12.47 99.9124 12.61 99.6324 12.83C99.3724 13.03 99.1124 13.23 98.8524 13.43C98.5924 13.61 98.3124 13.7 98.0124 13.7C97.8724 13.7 97.6924 13.69 97.4724 13.67C97.2724 13.63 97.1224 13.57 97.0224 13.49C96.7624 13.43 96.5724 13.36 96.4524 13.28C96.3524 13.18 96.2724 13 96.2124 12.74L96.3324 12.35L96.2424 12.11C96.3424 11.79 96.4124 11.56 96.4524 11.42C96.5124 11.28 96.5924 11.16 96.6924 11.06C96.8124 10.96 97.0024 10.81 97.2624 10.61C97.2824 10.51 97.3324 10.44 97.4124 10.4C97.5124 10.34 97.6024 10.3 97.6824 10.28L97.7124 10.13L98.0124 9.77L98.1024 9.83L98.2824 9.56C98.4224 9.46 98.5624 9.4 98.7024 9.38C98.8624 9.34 99.0124 9.28 99.1524 9.2C99.1924 8.98 99.3224 8.85 99.5424 8.81C99.7824 8.75 99.9224 8.64 99.9624 8.48H100.082L100.592 8.15L100.772 8.24L101.192 7.97C101.312 7.97 101.422 7.96 101.522 7.94C101.642 7.92 101.752 7.91 101.852 7.91L101.972 7.97C101.572 8.11 101.112 8.34 100.592 8.66C100.072 8.96 99.5624 9.32 99.0624 9.74C98.5824 10.14 98.1824 10.58 97.8624 11.06C97.5424 11.54 97.3824 12.02 97.3824 12.5C97.3824 12.88 97.5824 13.07 97.9824 13.07C98.3424 13.07 98.7124 12.96 99.0924 12.74C99.4924 12.52 99.8524 12.25 100.172 11.93C100.492 11.61 100.722 11.3 100.862 11L101.372 10.58C101.412 10.48 101.462 10.41 101.522 10.37C101.582 10.33 101.622 10.26 101.642 10.16C101.782 10.14 101.882 10.02 101.942 9.8C102.002 9.58 102.072 9.34 102.152 9.08C102.232 8.8 102.342 8.56 102.482 8.36C102.622 8.16 102.832 8.06 103.112 8.06C103.332 8.06 103.582 8.16 103.862 8.36C104.142 8.54 104.282 8.76 104.282 9.02C104.282 9.16 104.162 9.43 103.922 9.83C103.682 10.23 103.402 10.7 103.082 11.24C102.782 11.78 102.512 12.34 102.272 12.92C102.032 13.5 101.912 14.05 101.912 14.57C101.912 14.79 101.952 15.01 102.032 15.23C102.132 15.45 102.192 15.67 102.212 15.89L102.182 15.98ZM105.102 15.26C104.782 15.26 104.522 15.12 104.322 14.84C104.122 14.58 104.022 14.29 104.022 13.97C104.022 13.73 104.092 13.37 104.232 12.89C104.392 12.39 104.582 11.87 104.802 11.33C105.022 10.77 105.252 10.27 105.492 9.83C105.732 9.39 105.952 9.1 106.152 8.96C106.432 8.52 106.682 8.11 106.902 7.73C106.582 7.79 106.262 7.86 105.942 7.94C105.622 8 105.322 8.09 105.042 8.21C104.902 8.39 104.742 8.48 104.562 8.48C104.502 8.44 104.432 8.4 104.352 8.36C104.272 8.32 104.202 8.27 104.142 8.21L104.172 8.15H104.142V8.09C104.142 7.99 104.122 7.9 104.082 7.82C104.062 7.72 104.042 7.63 104.022 7.55C104.002 7.53 103.992 7.48 103.992 7.4C103.992 7.14 104.112 6.97 104.352 6.89C104.612 6.81 104.872 6.77 105.132 6.77C105.512 6.77 105.772 6.8 105.912 6.86L106.212 6.8H106.962C107.102 6.8 107.232 6.8 107.352 6.8C107.472 6.8 107.592 6.79 107.712 6.77L107.832 6.59L107.802 6.47C107.862 6.33 107.992 6.1 108.192 5.78C108.392 5.46 108.602 5.12 108.822 4.76C109.042 4.4 109.232 4.09 109.392 3.83C109.572 3.55 109.662 3.41 109.662 3.41C109.662 3.29 109.762 3.22 109.962 3.2C110.162 3.18 110.292 3.17 110.352 3.17C110.572 3.17 110.872 3.24 111.252 3.38C111.632 3.5 111.822 3.71 111.822 4.01C111.822 4.19 111.752 4.34 111.612 4.46C111.472 4.56 111.322 4.63 111.162 4.67V4.7C111.162 4.82 111.072 4.96 110.892 5.12C110.732 5.28 110.542 5.42 110.322 5.54C110.102 5.66 109.932 5.74 109.812 5.78C109.752 5.8 109.672 5.88 109.572 6.02C109.492 6.14 109.432 6.23 109.392 6.29V6.41C109.312 6.47 109.222 6.54 109.122 6.62C109.042 6.68 108.972 6.76 108.912 6.86C109.012 6.88 109.112 6.89 109.212 6.89C109.312 6.89 109.412 6.89 109.512 6.89C109.672 6.89 109.822 6.89 109.962 6.89C110.122 6.89 110.272 6.9 110.412 6.92L111.342 7.04C111.102 7.24 110.832 7.36 110.532 7.4C110.232 7.42 109.922 7.43 109.602 7.43C109.302 7.41 109.012 7.46 108.732 7.58C108.592 7.62 108.402 7.74 108.162 7.94C107.942 8.14 107.742 8.36 107.562 8.6C107.382 8.82 107.292 9.01 107.292 9.17L106.602 10.1C106.402 10.2 106.302 10.35 106.302 10.55C106.302 10.75 106.192 10.85 105.972 10.85L105.552 11.81C105.532 11.93 105.502 12.12 105.462 12.38C105.442 12.62 105.362 12.76 105.222 12.8C105.222 13.06 105.212 13.32 105.192 13.58C105.172 13.82 105.162 14.06 105.162 14.3L105.222 14.42H105.462C105.862 14.02 106.272 13.64 106.692 13.28C107.132 12.9 107.542 12.5 107.922 12.08L108.072 12.02H108.132L108.312 11.78L108.432 11.72L108.402 11.69L108.582 11.54C108.742 11.24 109.002 10.99 109.362 10.79L109.392 10.85C109.392 10.95 109.262 11.17 109.002 11.51C108.742 11.83 108.412 12.21 108.012 12.65C107.632 13.07 107.232 13.48 106.812 13.88C106.412 14.28 106.052 14.61 105.732 14.87C105.412 15.13 105.202 15.26 105.102 15.26Z" fill="#FFF500"/>
</svg>
